<svg width="17" height="18" viewBox="0 0 17 18" fill="none" xmlns="http://www.w3.org/2000/svg">
<mask id="mask0_51_100" style="mask-type:luminance" maskUnits="userSpaceOnUse" x="0" y="0" width="17" height="18">
<path d="M16.8331 0.230988H0.0499268V17.0142H16.8331V0.230988Z" fill="white"/>
</mask>
<g mask="url(#mask0_51_100)">
<path d="M15.21 9.87299C14.91 9.48299 14.45 9.25995 13.95 9.25995H12.47V8.13098H1.32996V11.483C1.32996 13.366 2.27997 15.0319 3.71997 16.0309H1.33997V17.014H12.47V16.0309H10.09C10.59 15.6819 11.0299 15.251 11.3999 14.757H12.48C13.74 14.757 14.8399 13.901 15.1399 12.675L15.5 11.243C15.62 10.763 15.51 10.264 15.21 9.87299ZM14.5499 11.004L14.1899 12.437C13.9899 13.224 13.29 13.774 12.48 13.774H11.98C12.29 13.075 12.47 12.3 12.47 11.483V10.243H13.95C14.14 10.243 14.3199 10.3289 14.4299 10.4789C14.5499 10.6279 14.5899 10.82 14.5499 11.004Z" fill="currentColor"/>
<path d="M6.90991 4.10898C6.00991 4.10898 5.28992 4.83597 5.28992 5.72897V6.85703H6.2699V5.72897C6.2699 5.37797 6.55991 5.09201 6.90991 5.09201H11.4199C13.5599 5.09201 15.2999 3.353 15.2999 1.215V0.230988H14.3199V1.215C14.3199 2.81 13.0199 4.10898 11.4199 4.10898H6.90991Z" fill="currentColor"/>
<path d="M4.01001 5.87399C4.01001 4.27799 5.30991 2.98001 6.90991 2.98001H11.4199C12.3199 2.98001 13.0399 2.25302 13.0399 1.36002V0.230988H12.0599V1.36002C12.0599 1.71102 11.7699 1.99698 11.4199 1.99698H6.90991C4.76991 1.99698 3.02991 3.73599 3.02991 5.87399V6.85703H4.01001V5.87399Z" fill="currentColor"/>
</g>
</svg>
