<svg width="17" height="13" viewBox="0 0 17 13" fill="none" xmlns="http://www.w3.org/2000/svg">
    <mask id="mask0_51_122" style="mask-type:luminance" maskUnits="userSpaceOnUse" x="0" y="0" width="17" height="13">
        <path d="M16.7832 0H0V12.5448H16.7832V0Z" fill="white"/>
    </mask>
    <g mask="url(#mask0_51_122)">
        <path d="M15.89 3.13001C15.21 2.83201 14.1099 2.34997 12.3599 1.58997C11.7199 1.31097 10.21 0.667985 9.26997 0.268985C8.75997 0.0519847 8.17988 0.0589666 7.67988 0.287967L6.0799 1.013L0.649848 3.38599L0.589911 3.41498C0.039911 3.69098 0.0399012 4.464 0.579901 4.75C0.629901 4.779 0.669877 4.799 0.679877 4.802C2.01988 5.385 3.92994 6.23097 6.61994 7.40497C6.87994 7.51597 7.35985 7.72595 7.77985 7.90595C8.26985 8.11895 8.82989 8.11896 9.31989 7.90296C9.69989 7.73596 10.1599 7.53596 10.5699 7.35596C11.7099 6.85396 13.1299 6.23098 13.9199 5.88398C14.2099 5.75898 14.5299 5.96598 14.5299 6.27698V11.407C14.5299 11.699 14.7499 11.951 15.0399 11.964C15.3599 11.977 15.6199 11.732 15.6199 11.42C15.6199 11.42 15.6199 5.887 15.6199 5.664C15.6199 5.441 15.3499 5.22795 15.1999 5.20795C15.0399 5.18895 9.59993 4.49697 8.47993 4.35297C8.14993 4.30997 7.86991 4.04099 7.95991 3.73999C8.02991 3.48399 8.23993 3.35599 8.47993 3.37299C8.50993 3.37299 15.9099 4.37299 15.9099 4.37299C16.0499 4.39199 16.1399 4.50395 16.2299 4.60895C16.2399 4.62495 16.2799 4.61198 16.3299 4.57898C16.8299 4.27398 16.7799 3.52997 16.2499 3.28797C16.0999 3.22497 15.97 3.17001 15.89 3.13001Z" fill="currentColor"/>
        <path d="M3.25 6.79199V9.25C3.25 11.079 5.50993 12.512 8.54993 12.512C11.5999 12.512 13.85 11.079 13.85 9.25V6.75598L10.1 8.375C9.10998 8.801 7.99 8.80395 7 8.38495L3.25 6.79199Z" fill="currentColor"/>
    </g>
</svg>
