<svg width="18" height="18" viewBox="0 0 18 18" fill="none" xmlns="http://www.w3.org/2000/svg">
<mask id="mask0_51_91" style="mask-type:luminance" maskUnits="userSpaceOnUse" x="0" y="0" width="18" height="18">
<path d="M17.3331 0.230957H0.549927V17.0142H17.3331V0.230957Z" fill="white"/>
</mask>
<g mask="url(#mask0_51_91)">
<path d="M10.9299 3.35397C11.7899 3.35397 12.49 2.65096 12.49 1.79196C12.49 0.933962 11.7899 0.230957 10.9299 0.230957C10.0699 0.230957 9.37 0.933969 9.37 1.79297C9.37 2.65097 10.0699 3.35397 10.9299 3.35397Z" fill="currentColor"/>
<path d="M15.22 9.20798V7.64697C13.78 7.64697 12.53 6.86599 11.83 5.73499L11.09 4.48596C10.81 4.01696 10.31 3.74396 9.76001 3.74396C9.56001 3.74396 9.36992 3.78296 9.16992 3.86096L5.07996 5.53897V9.20798H6.63989V6.59296L8 6.04697L6.78992 12.331L2.96997 11.589L2.65991 13.111C2.65991 13.111 8.12 14.165 8.12 14.204L8.85999 10.77L10.5399 12.331V17.014H12.1V11.121L10.5 9.52097L10.97 7.17899C11.98 8.42799 13.51 9.20798 15.22 9.20798Z" fill="currentColor"/>
</g>
</svg>
